<svg id="visual" viewBox="0 0 900 600" width="900" height="600" xmlns="http://www.w3.org/2000/svg" xmlns:xlink="http://www.w3.org/1999/xlink" version="1.1"><rect x="0" y="0" width="900" height="600" fill="#000000"></rect><path d="M0 252L16.7 251.7C33.3 251.3 66.7 250.7 100 251.5C133.3 252.3 166.7 254.7 200 264.2C233.3 273.7 266.7 290.3 300 281.8C333.3 273.3 366.7 239.7 400 233.8C433.3 228 466.7 250 500 250C533.3 250 566.7 228 600 235.3C633.3 242.7 666.7 279.3 700 293.8C733.3 308.3 766.7 300.7 800 282.3C833.3 264 866.7 235 883.3 220.5L900 206L900 0L883.3 0C866.7 0 833.3 0 800 0C766.7 0 733.3 0 700 0C666.7 0 633.3 0 600 0C566.7 0 533.3 0 500 0C466.7 0 433.3 0 400 0C366.7 0 333.3 0 300 0C266.7 0 233.3 0 200 0C166.7 0 133.3 0 100 0C66.7 0 33.3 0 16.7 0L0 0Z" fill="#f3f3f3"></path><path d="M0 182L16.7 180.5C33.3 179 66.7 176 100 188.3C133.3 200.7 166.7 228.3 200 239C233.3 249.7 266.7 243.3 300 240.7C333.3 238 366.7 239 400 240C433.3 241 466.7 242 500 232.8C533.3 223.7 566.7 204.3 600 204.8C633.3 205.3 666.7 225.7 700 235C733.3 244.3 766.7 242.7 800 235.7C833.3 228.7 866.7 216.3 883.3 210.2L900 204L900 0L883.3 0C866.7 0 833.3 0 800 0C766.7 0 733.3 0 700 0C666.7 0 633.3 0 600 0C566.7 0 533.3 0 500 0C466.7 0 433.3 0 400 0C366.7 0 333.3 0 300 0C266.7 0 233.3 0 200 0C166.7 0 133.3 0 100 0C66.7 0 33.3 0 16.7 0L0 0Z" fill="#cccccc"></path><path d="M0 232L16.7 219C33.3 206 66.7 180 100 173.8C133.3 167.7 166.7 181.3 200 193C233.3 204.7 266.7 214.3 300 216C333.3 217.7 366.7 211.3 400 197.8C433.3 184.3 466.7 163.7 500 157.5C533.3 151.3 566.7 159.7 600 172.3C633.3 185 666.7 202 700 212.8C733.3 223.7 766.7 228.3 800 216.7C833.3 205 866.7 177 883.3 163L900 149L900 0L883.3 0C866.7 0 833.3 0 800 0C766.7 0 733.3 0 700 0C666.7 0 633.3 0 600 0C566.7 0 533.3 0 500 0C466.7 0 433.3 0 400 0C366.7 0 333.3 0 300 0C266.7 0 233.3 0 200 0C166.7 0 133.3 0 100 0C66.7 0 33.3 0 16.7 0L0 0Z" fill="#a6a6a6"></path><path d="M0 111L16.7 110.8C33.3 110.7 66.7 110.3 100 117.8C133.3 125.3 166.7 140.7 200 146.7C233.3 152.7 266.7 149.3 300 151.8C333.3 154.3 366.7 162.7 400 158.2C433.3 153.7 466.7 136.3 500 136.7C533.3 137 566.7 155 600 163C633.3 171 666.7 169 700 164.3C733.3 159.7 766.7 152.3 800 151.7C833.3 151 866.7 157 883.3 160L900 163L900 0L883.3 0C866.7 0 833.3 0 800 0C766.7 0 733.3 0 700 0C666.7 0 633.3 0 600 0C566.7 0 533.3 0 500 0C466.7 0 433.3 0 400 0C366.7 0 333.3 0 300 0C266.7 0 233.3 0 200 0C166.7 0 133.3 0 100 0C66.7 0 33.3 0 16.7 0L0 0Z" fill="#818181"></path><path d="M0 138L16.7 130C33.3 122 66.7 106 100 99.5C133.3 93 166.7 96 200 103C233.3 110 266.7 121 300 124.8C333.3 128.7 366.7 125.3 400 122.5C433.3 119.7 466.7 117.3 500 116.5C533.3 115.7 566.7 116.3 600 120.8C633.3 125.3 666.7 133.7 700 139.7C733.3 145.7 766.7 149.3 800 146.5C833.3 143.7 866.7 134.3 883.3 129.7L900 125L900 0L883.3 0C866.7 0 833.3 0 800 0C766.7 0 733.3 0 700 0C666.7 0 633.3 0 600 0C566.7 0 533.3 0 500 0C466.7 0 433.3 0 400 0C366.7 0 333.3 0 300 0C266.7 0 233.3 0 200 0C166.7 0 133.3 0 100 0C66.7 0 33.3 0 16.7 0L0 0Z" fill="#5e5e5e"></path><path d="M0 63L16.7 62.8C33.3 62.7 66.7 62.3 100 64.8C133.3 67.3 166.7 72.7 200 79.2C233.3 85.7 266.7 93.3 300 90.7C333.3 88 366.7 75 400 68.8C433.3 62.7 466.7 63.3 500 63.8C533.3 64.3 566.7 64.7 600 70.8C633.3 77 666.7 89 700 92C733.3 95 766.7 89 800 82.5C833.3 76 866.7 69 883.3 65.5L900 62L900 0L883.3 0C866.7 0 833.3 0 800 0C766.7 0 733.3 0 700 0C666.7 0 633.3 0 600 0C566.7 0 533.3 0 500 0C466.7 0 433.3 0 400 0C366.7 0 333.3 0 300 0C266.7 0 233.3 0 200 0C166.7 0 133.3 0 100 0C66.7 0 33.3 0 16.7 0L0 0Z" fill="#3e3e3e"></path><path d="M0 50L16.7 44.8C33.3 39.7 66.7 29.3 100 32.5C133.3 35.7 166.7 52.3 200 60C233.3 67.7 266.7 66.3 300 62.7C333.3 59 366.7 53 400 50.7C433.3 48.3 466.7 49.7 500 53.7C533.3 57.7 566.7 64.3 600 60.3C633.3 56.3 666.7 41.7 700 33.2C733.3 24.7 766.7 22.3 800 20.8C833.3 19.3 866.7 18.7 883.3 18.3L900 18L900 0L883.3 0C866.7 0 833.3 0 800 0C766.7 0 733.3 0 700 0C666.7 0 633.3 0 600 0C566.7 0 533.3 0 500 0C466.7 0 433.3 0 400 0C366.7 0 333.3 0 300 0C266.7 0 233.3 0 200 0C166.7 0 133.3 0 100 0C66.7 0 33.3 0 16.7 0L0 0Z" fill="#202020"></path></svg>